<svg xmlns:xlink="http://www.w3.org/1999/xlink" xmlns="http://www.w3.org/2000/svg" width="36" height="36" viewBox="0 0 24 24"><g fill="none" fill-rule="evenodd"><path d="M0 0h24v24H0z" opacity="0.05" fill="none"></path><path fill="#535766" d="M21 20.007a.993.993 0 01-.993.993H15.42v-6.97h2.34l.35-2.717h-2.69V9.579c0-.787.218-1.323 1.346-1.323h1.439v-2.43a19.18 19.18 0 00-2.096-.107c-2.074 0-3.494 1.266-3.494 3.59v2.004h-2.346v2.717h2.346V21H3.993A.993.993 0 013 20.007V3.993C3 3.445 3.445 3 3.993 3h16.014c.548 0 .993.445.993.993v16.014"></path></g></svg>