<svg xmlns:xlink="http://www.w3.org/1999/xlink" xmlns="http://www.w3.org/2000/svg" width="36" height="36" viewBox="0 0 24 24"><g fill="none" fill-rule="evenodd"><path d="M0 0h24v24H0z" opacity="0.05" fill="none"></path><g fill="#282C3F"><path d="M18.577 15.577h.004c0 1.654-1.345 3-2.996 3h-7.17a2.993 2.993 0 01-2.992-2.993V8.415a2.993 2.993 0 012.993-2.992h7.169a2.993 2.993 0 012.992 2.992v7.162zM15.585 4h-7.17A4.42 4.42 0 004 8.415v7.17A4.42 4.42 0 008.416 20h7.169A4.42 4.42 0 0020 15.584V8.415A4.42 4.42 0 0015.585 4z" fill="#282C3F"></path><path d="M12 14.703A2.706 2.706 0 019.297 12 2.706 2.706 0 0112 9.297 2.706 2.706 0 0114.703 12 2.706 2.706 0 0112 14.703m0-6.826A4.127 4.127 0 007.877 12 4.127 4.127 0 0012 16.123 4.127 4.127 0 0016.123 12 4.127 4.127 0 0012 7.877m4.296-1.204a1.045 1.045 0 00-1.041 1.042 1.046 1.046 0 001.041 1.041c.274 0 .542-.112.736-.305a1.045 1.045 0 000-1.473 1.046 1.046 0 00-.736-.305" fill="#282C3F"></path></g></g></svg>