<svg xmlns:xlink="http://www.w3.org/1999/xlink" xmlns="http://www.w3.org/2000/svg" width="24" height="24" viewBox="0 0 24 24"><g stroke="none" stroke-width="1" fill="none" fill-rule="evenodd"><g fill="#FF3F6C" transform="translate(1.000000, 2.000000)"><path d="M11.02835,19.276575 L10.972,19.276575 C10.6304,19.276575 10.2965,19.137625 10.05605,18.895075 L2.71865,11.513925 C1.53495,10.323225 0.88325,8.735275 0.88325,7.042675 C0.88325,5.350075 1.53495,3.762475 2.71865,2.571775 C3.9034,1.379675 5.48435,0.723425 7.1703,0.723425 C8.5759,0.723425 9.90905,1.179825 11,2.022625 C12.0913,1.179825 13.4241,0.723425 14.8297,0.723425 C16.516,0.723425 18.09695,1.379675 19.2817,2.572125 C20.46505,3.762475 21.11675,5.350075 21.11675,7.042675 C21.11675,8.735625 20.46505,10.323225 19.2817,11.513925 L11.94325,18.895775 C11.6993,19.141475 11.3745,19.276575 11.02835,19.276575 L11.02835,19.276575 Z" fill="#FF3F6C"></path></g></g></svg>