<svg xmlns:xlink="http://www.w3.org/1999/xlink" xmlns="http://www.w3.org/2000/svg" width="24" height="24" viewBox="0 0 24 24" class="SortModalIcon"><defs><path id="a" d="M0 0h14v16H0z"></path><path id="a" d="M0 0h12.5v16H0z"></path></defs><g fill="none" fill-rule="evenodd"><path d="M0 0h24v24H0z" opacity="0.05" fill="none"></path><g transform="translate(5 4)" fill="none"><mask id="b" fill="#FFFFFF"><use xlink:href="#a"></use></mask><path fill="#282C3F" d="M9.091 10.81a.695.695 0 00-.71.412L7 14.364l-1.38-3.142a.695.695 0 00-.711-.411l-3.403.371 2.022-2.77a.695.695 0 000-.823L1.506 4.818l3.403.371a.695.695 0 00.71-.412L7 1.637l1.382 3.142a.695.695 0 00.71.411l3.403-.371-2.022 2.77a.695.695 0 000 .823l2.022 2.771-3.403-.371zM11.501 8l2.364-3.24a.694.694 0 00.06-.727.69.69 0 00-.695-.377l-3.98.434L7.636.416a.694.694 0 00-1.271 0L4.75 4.09.77 3.656a.69.69 0 00-.694.378.695.695 0 00.059.726L2.499 8 .135 11.24a.695.695 0 00-.06.727.69.69 0 00.695.377l3.98-.434 1.615 3.674a.694.694 0 001.27 0L9.25 11.91l3.98.434a.69.69 0 00.694-.378.694.694 0 00-.059-.726L11.501 8z" mask="url(#b)"></path></g></g></svg>