<svg xmlns:xlink="http://www.w3.org/1999/xlink" xmlns="http://www.w3.org/2000/svg" width="36" height="36" viewBox="0 0 24 24"><g fill="none" fill-rule="evenodd"><path d="M0 0h24v24H0z" opacity="0.05" fill="none"></path><path fill="#282C3F" d="M19.744 6.523a6.402 6.402 0 01-1.104.366c.417-.39.732-.878.908-1.422.051-.156-.12-.29-.264-.207a6.428 6.428 0 01-1.686.685.447.447 0 01-.4-.098A3.483 3.483 0 0014.914 5c-.364 0-.731.056-1.092.166a3.31 3.31 0 00-2.252 2.368c-.102.42-.13.84-.082 1.25a.12.12 0 01-.031.095.13.13 0 01-.095.042h-.013a9.089 9.089 0 01-6.216-3.267.182.182 0 00-.295.023 3.345 3.345 0 00-.467 1.705c0 .92.375 1.787 1.028 2.42a3.121 3.121 0 01-.787-.3.18.18 0 00-.268.152 3.394 3.394 0 002.015 3.13h-.074c-.193 0-.389-.017-.58-.054a.179.179 0 00-.207.229 3.441 3.441 0 002.73 2.313 6.44 6.44 0 01-3.564 1.064h-.399a.263.263 0 00-.258.196.267.267 0 00.131.297 9.587 9.587 0 004.757 1.262c1.462 0 2.83-.286 4.065-.848a8.963 8.963 0 002.974-2.193 9.582 9.582 0 001.825-3c.405-1.065.623-2.2.623-3.285v-.051a.57.57 0 01.216-.45c.53-.423.99-.921 1.37-1.48.1-.148-.06-.333-.225-.261"></path></g></svg>