<svg xmlns:xlink="http://www.w3.org/1999/xlink" xmlns="http://www.w3.org/2000/svg" width="36" height="36" viewBox="0 0 24 24"><g fill="none" fill-rule="evenodd"><path d="M0 0h24v24H0z" opacity="0.05" fill="none"></path><path fill="#282C3F" d="M9.933 14.709V9.648c1.7.846 3.38 1.687 5.087 2.538l-5.087 2.523m9.79-5.993a1.991 1.991 0 00-1.729-1.504C16.01 7 14.002 6.999 12.003 7c-2-.001-4.008 0-5.992.212a1.99 1.99 0 00-1.729 1.504C4.003 9.875 4 11.14 4 12.333c0 1.194 0 2.459.279 3.618a1.991 1.991 0 001.729 1.504c1.984.212 3.992.213 5.991.212 2 0 4.008 0 5.992-.212a1.991 1.991 0 001.729-1.504c.279-1.16.28-2.424.28-3.618 0-1.193.002-2.458-.276-3.617"></path></g></svg>